<?xml version="1.0" encoding="utf-8"?>
<!-- Generator: Adobe Illustrator 27.5.0, SVG Export Plug-In . SVG Version: 6.00 Build 0)  -->
<svg version="1.1" xmlns="http://www.w3.org/2000/svg" xmlns:xlink="http://www.w3.org/1999/xlink" x="0px" y="0px"
	 viewBox="0 0 500 500" style="enable-background:new 0 0 500 500;" xml:space="preserve">
<g id="Background_Complete">
	<g>
		<rect y="382.398" style="fill:#EBEBEB;" width="500" height="0.25"/>
		<rect x="52.459" y="391.922" style="fill:#EBEBEB;" width="33.122" height="0.25"/>
		<rect x="153.444" y="389.208" style="fill:#EBEBEB;" width="26.389" height="0.25"/>
		<rect x="89.965" y="397.824" style="fill:#EBEBEB;" width="45.923" height="0.25"/>
		<rect x="428.305" y="399.528" style="fill:#EBEBEB;" width="21.597" height="0.25"/>
		<rect x="391.471" y="399.528" style="fill:#EBEBEB;" width="31.973" height="0.25"/>
		<rect x="277.213" y="395.306" style="fill:#EBEBEB;" width="55.12" height="0.25"/>
		<path style="fill:#EBEBEB;" d="M237.014,337.8H43.915c-3.147,0-5.708-2.561-5.708-5.708V60.66c0-3.147,2.561-5.708,5.708-5.708
			h193.099c3.146,0,5.707,2.561,5.707,5.708v271.432C242.721,335.239,240.16,337.8,237.014,337.8z M43.915,55.203
			c-3.01,0-5.458,2.448-5.458,5.458v271.432c0,3.01,2.448,5.458,5.458,5.458h193.099c3.009,0,5.457-2.448,5.457-5.458V60.66
			c0-3.009-2.448-5.458-5.457-5.458H43.915z"/>
		<path style="fill:#EBEBEB;" d="M453.31,337.8H260.212c-3.147,0-5.707-2.561-5.707-5.708V60.66c0-3.147,2.561-5.708,5.707-5.708
			H453.31c3.148,0,5.708,2.561,5.708,5.708v271.432C459.019,335.239,456.458,337.8,453.31,337.8z M260.212,55.203
			c-3.009,0-5.457,2.448-5.457,5.458v271.432c0,3.01,2.448,5.458,5.457,5.458H453.31c3.01,0,5.458-2.448,5.458-5.458V60.66
			c0-3.009-2.448-5.458-5.458-5.458H260.212z"/>
	</g>
	<g>
		<g>
			<rect x="77.526" y="85.481" style="fill:#E6E6E6;" width="211.788" height="130.654"/>
			<rect x="80.068" y="85.481" style="fill:#F0F0F0;" width="214.687" height="130.654"/>
			<rect x="77.526" y="216.135" style="fill:#E6E6E6;" width="211.788" height="10.111"/>
			<rect x="89.133" y="216.135" style="fill:#F0F0F0;" width="214.687" height="10.111"/>
			
				<rect x="129.702" y="51.082" transform="matrix(-1.836970e-16 1 -1 -1.836970e-16 338.2192 -36.604)" style="fill:#FAFAFA;" width="115.419" height="199.452"/>
			<polygon style="fill:#FFFFFF;" points="102.328,208.517 147.037,93.098 168.142,93.098 123.433,208.517 			"/>
			<polygon style="fill:#FFFFFF;" points="127.967,208.517 172.676,93.098 180.904,93.098 136.195,208.517 			"/>
			<polygon style="fill:#FFFFFF;" points="206.188,208.517 250.897,93.098 259.125,93.098 214.416,208.517 			"/>
			
				<rect x="228.944" y="150.324" transform="matrix(-1.836970e-16 1 -1 -1.836970e-16 437.4615 -135.8463)" style="fill:#E6E6E6;" width="115.419" height="0.967"/>
		</g>
		<g>
			<rect x="269.038" y="282.938" style="fill:#E6E6E6;" width="37.458" height="99.46"/>
			<polygon style="fill:#F0F0F0;" points="299.382,382.398 306.497,382.398 306.497,359.622 291.922,359.622 			"/>
			<rect x="55.311" y="282.938" style="fill:#E6E6E6;" width="37.458" height="99.46"/>
			<rect x="86.56" y="282.938" style="fill:#F0F0F0;" width="219.937" height="95.86"/>
			<polygon style="fill:#F0F0F0;" points="93.675,382.398 86.56,382.398 86.56,359.622 101.134,359.622 			"/>
			<g>
				<path style="fill:#FAFAFA;" d="M159.07,296.247v68.299c0,1.333-1.08,2.413-2.413,2.413h-60.37c-1.333,0-2.413-1.081-2.413-2.413
					v-68.299c0-1.333,1.08-2.413,2.413-2.413h60.37C157.99,293.834,159.07,294.914,159.07,296.247z"/>
				<path style="fill:#F0F0F0;" d="M132.92,301.324h-12.898c-5.603,0-10.959-3.338-14.812-9.23l0,0h42.523l0,0
					C143.879,297.986,138.523,301.324,132.92,301.324z"/>
			</g>
			<g>
				<path style="fill:#FAFAFA;" d="M229.127,296.247v68.299c0,1.333-1.081,2.413-2.413,2.413h-60.37
					c-1.333,0-2.413-1.081-2.413-2.413v-68.299c0-1.333,1.081-2.413,2.413-2.413h60.37
					C228.047,293.834,229.127,294.914,229.127,296.247z"/>
				<path style="fill:#F0F0F0;" d="M203.636,301.324h-12.898c-5.603,0-10.959-3.338-14.812-9.23l0,0h42.523l0,0
					C214.595,297.986,209.239,301.324,203.636,301.324z"/>
			</g>
			<g>
				<path style="fill:#FAFAFA;" d="M299.184,296.247v68.299c0,1.333-1.081,2.413-2.413,2.413h-60.37
					c-1.333,0-2.413-1.081-2.413-2.413v-68.299c0-1.333,1.08-2.413,2.413-2.413h60.37
					C298.104,293.834,299.184,294.914,299.184,296.247z"/>
				<path style="fill:#F0F0F0;" d="M273.693,301.324h-12.898c-5.603,0-10.959-3.338-14.812-9.23l0,0h42.523l0,0
					C284.652,297.986,279.296,301.324,273.693,301.324z"/>
			</g>
		</g>
		<g>
			<path style="fill:#F0F0F0;" d="M461.469,273.184c-0.096-0.465-0.502-0.798-0.982-0.798h-26.072c-0.473,0-0.886,0.332-0.975,0.798
				l-13.494,109.215h2.046l13.243-108.011h24.439l13.243,108.011h2.046L461.469,273.184z"/>
			<path style="fill:#F0F0F0;" d="M422.243,273.184c-0.096-0.465-0.51-0.798-0.982-0.798h-26.072c-0.48,0-0.886,0.332-0.982,0.798
				l-13.494,109.215h2.046l13.25-108.011h24.432l13.243,108.011h2.046L422.243,273.184z"/>
			<path style="fill:#F0F0F0;" d="M440.951,273.385h-44.903c-8.573,0-13.322-5.829-15.745-15.428l-1.193-5.489
				c-0.98-4.51,0.696-9.297,4.5-11.91c1.844-1.267,4.078-2.009,6.487-2.009h28.149c5.832,0,7.37,1.388,11.397,10.172
				C433.67,257.503,440.951,273.385,440.951,273.385z"/>
			<path style="fill:#F0F0F0;" d="M460.404,264.781h-43.943v8.604h47.85c1.239,0,2.243-1.004,2.243-2.243v-0.211
				C466.554,267.534,463.8,264.781,460.404,264.781z"/>
		</g>
		<g>
			<path style="fill:#F0F0F0;" d="M402.967,273.184c-0.096-0.465-0.502-0.798-0.982-0.798h-26.072c-0.473,0-0.886,0.332-0.975,0.798
				l-13.494,109.215h2.046l13.243-108.011h24.44l13.243,108.011h2.046L402.967,273.184z"/>
			<path style="fill:#F0F0F0;" d="M363.741,273.184c-0.096-0.465-0.51-0.798-0.982-0.798h-26.072c-0.48,0-0.886,0.332-0.982,0.798
				l-13.494,109.215h2.046l13.25-108.011h24.432l13.243,108.011h2.046L363.741,273.184z"/>
			<path style="fill:#F0F0F0;" d="M382.449,273.385h-44.903c-8.573,0-13.322-5.829-15.745-15.428l-1.193-5.489
				c-0.98-4.51,0.696-9.297,4.5-11.91c1.844-1.267,4.077-2.009,6.487-2.009h28.149c5.833,0,7.37,1.388,11.397,10.172
				C375.168,257.503,382.449,273.385,382.449,273.385z"/>
			<path style="fill:#F0F0F0;" d="M401.902,264.781h-43.943v8.604h47.85c1.238,0,2.243-1.004,2.243-2.243v-0.211
				C408.052,267.534,405.298,264.781,401.902,264.781z"/>
		</g>
		<g>
			<rect x="351.529" y="80.117" style="fill:#F0F0F0;" width="77.669" height="90.578"/>
			<rect x="352.699" y="80.117" style="fill:#F5F5F5;" width="83.03" height="90.578"/>
			
				<rect x="356.063" y="91.029" transform="matrix(-1.836970e-16 1 -1 -1.836970e-16 519.62 -268.8081)" style="fill:#FFFFFF;" width="76.302" height="68.754"/>
			<g>
				
					<rect x="388.682" y="119.832" transform="matrix(-1 -1.224647e-16 1.224647e-16 -1 788.4285 274.0151)" style="fill:#E6E6E6;" width="11.064" height="34.352"/>
				<g>
					
						<rect x="407.492" y="138.101" transform="matrix(-1 -1.224647e-16 1.224647e-16 -1 826.0478 292.2845)" style="fill:#E6E6E6;" width="11.064" height="16.082"/>
					
						<rect x="407.492" y="128.295" transform="matrix(-1 -1.224647e-16 1.224647e-16 -1 826.0478 266.3959)" style="fill:#F0F0F0;" width="11.064" height="9.807"/>
				</g>
				
					<rect x="388.682" y="98.885" transform="matrix(-1 -1.224647e-16 1.224647e-16 -1 788.4285 218.7171)" style="fill:#F0F0F0;" width="11.064" height="20.947"/>
				
					<rect x="369.873" y="126.087" transform="matrix(-1 -1.224647e-16 1.224647e-16 -1 750.8093 280.27)" style="fill:#E6E6E6;" width="11.064" height="28.097"/>
				
					<rect x="369.873" y="113.208" transform="matrix(-1 -1.224647e-16 1.224647e-16 -1 750.8093 239.2944)" style="fill:#F0F0F0;" width="11.064" height="12.879"/>
			</g>
		</g>
	</g>
</g>
<g id="Background_Simple" style="display:none;">
	<g style="display:inline;">
		<path style="fill:#407BFF;" d="M266.653,334.207c87.122-15.723,184.619-60.05,170.67-160.893
			C424.667,81.824,320.979,38.204,242.514,96.768c-33.844,25.26-38.729,67.897-77.378,88.456
			c-38.635,20.552-95.751,23.905-93.88,82.188C74.154,357.655,209.323,344.553,266.653,334.207z"/>
		<path style="opacity:0.9;fill:#FFFFFF;" d="M266.653,334.207c87.122-15.723,184.619-60.05,170.67-160.893
			C424.667,81.824,320.979,38.204,242.514,96.768c-33.844,25.26-38.729,67.897-77.378,88.456
			c-38.635,20.552-95.751,23.905-93.88,82.188C74.154,357.655,209.323,344.553,266.653,334.207z"/>
	</g>
</g>
<g id="Shadow_1_">
	<ellipse id="_x3C_Path_x3E__272_" style="fill:#F5F5F5;" cx="250" cy="416.238" rx="193.889" ry="11.323"/>
</g>
<g id="Character_1_">
	<g>
		<g>
			<polygon style="fill:#FF8B7B;" points="246.368,406.961 255.224,407.038 259.936,386.53 251.081,386.452 			"/>
			<path style="fill:#263238;" d="M255.444,406.012l-9.68-0.085c-0.362-0.003-0.695,0.246-0.8,0.599l-2.34,7.859
				c-0.243,0.815,0.32,1.594,1.157,1.587c3.497-0.029,8.558-0.189,12.947-0.15c5.132,0.045,6.19,0.364,12.208,0.416
				c3.639,0.032,4.924-3.636,3.426-3.983c-6.821-1.577-9.117-1.789-14.833-5.534C256.906,406.314,256.209,406.019,255.444,406.012z"
				/>
			<g>
				<polygon style="opacity:0.2;" points="259.933,386.535 257.506,397.107 248.646,397.029 251.074,386.458 				"/>
			</g>
			<path style="fill:#407BFF;" d="M259.104,407.594c-0.997,0-2.08-0.182-2.839-0.342c-0.088-0.018-0.154-0.091-0.165-0.18
				c-0.011-0.089,0.036-0.175,0.116-0.214c0.421-0.206,4.145-1.993,5.163-1.358c0.195,0.122,0.299,0.317,0.299,0.565
				c0,0.418-0.158,0.759-0.47,1.013C260.733,407.463,259.949,407.594,259.104,407.594z M256.98,406.962
				c1.919,0.337,3.378,0.264,3.963-0.211c0.212-0.172,0.315-0.397,0.315-0.686c0-0.129-0.051-0.178-0.101-0.209
				C260.611,405.515,258.506,406.272,256.98,406.962z"/>
			<path style="fill:#407BFF;" d="M256.309,407.256c-0.047,0-0.092-0.015-0.13-0.045c-0.06-0.048-0.09-0.124-0.077-0.2
				c0.027-0.162,0.697-3.972,2.809-3.737c0.557,0.062,0.713,0.343,0.746,0.568c0.147,0.996-2.129,2.914-3.266,3.398
				C256.364,407.25,256.336,407.256,256.309,407.256z M258.731,403.684c-1.27,0-1.908,2.071-2.126,2.979
				c1.169-0.662,2.723-2.166,2.636-2.761c-0.006-0.043-0.025-0.172-0.377-0.211C258.819,403.686,258.774,403.684,258.731,403.684z"
				/>
			<path style="fill:#FF8B7B;" d="M299.982,164.626c0.13,5.395,0.316,10.991,0.576,16.461c0.118,2.745,0.273,5.486,0.464,8.206
				c0.173,2.724,0.409,5.43,0.703,8.095c0.136,1.337,0.291,2.663,0.481,3.965l0.133,0.984c0.018,0.124,0.002,0.035,0.001,0.059
				l-0.019-0.004c0,0-0.025-0.003-0.027,0.003c-0.033,0.018-0.037,0.108,0.041,0.29c0.156,0.366,0.689,0.982,1.452,1.562
				c0.767,0.579,1.715,1.189,2.762,1.733c4.23,2.199,9.604,3.815,14.701,5.249l-0.541,6.77c-3.091,0.184-5.988,0.107-9.013-0.198
				c-1.504-0.143-3.012-0.363-4.537-0.655c-1.528-0.283-3.066-0.656-4.629-1.162c-1.563-0.507-3.168-1.107-4.794-2.013
				c-1.62-0.906-3.331-2.063-4.914-3.919c-0.783-0.931-1.498-2.073-2.027-3.372c-0.137-0.32-0.244-0.664-0.356-0.999l-0.142-0.518
				l-0.112-0.457l-0.239-1.094c-0.333-1.464-0.621-2.918-0.886-4.367c-1.054-5.808-1.685-11.553-2.161-17.302
				c-0.199-2.873-0.407-5.742-0.487-8.614c-0.091-2.888-0.189-5.706-0.139-8.678L299.982,164.626z"/>
			<g>
				<path style="fill:#407BFF;" d="M283.114,165.307c-1.262,10.05,1.053,24.89,1.053,24.89s7.011,0.993,12.455-0.433
					c5.444-1.426,6.599-2.514,6.599-2.514s2.223-10.159,0.157-20.933c-2.186-11.349-11.305-15.656-17.613-8.725
					C284.346,159.157,283.533,161.968,283.114,165.307z"/>
				<path style="opacity:0.2;" d="M284.15,170.16c-0.523,1.603-0.972,3.355-1.357,5.171c0.267,7.724,1.378,14.86,1.378,14.86
					s6.314,0.898,11.602-0.224c0.16-1.912,0.256-3.953,0.246-6.068C296.02,174.284,290.368,168.558,284.15,170.16z"/>
			</g>
			<path style="fill:#FF8B7B;" d="M318.177,210.775l6.937-0.46l-0.346,8.784c0,0-4.334,0.841-8.599-2.698L318.177,210.775z"/>
			<path style="fill:#FF8B7B;" d="M332.168,214.377l-1.286,3.636c-0.355,1.003-1.355,1.629-2.413,1.508l-3.701-0.422l0.346-8.784
				l5.344,1.059C331.824,211.645,332.632,213.064,332.168,214.377z"/>
			<g>
				<path style="fill:#263238;" d="M323.122,219.933l-2.247-1.252c-0.569-0.317-0.776-1.042-0.458-1.612l5.013-8.997
					c0.317-0.569,1.042-0.775,1.612-0.458l2.247,1.252c0.569,0.317,0.775,1.042,0.458,1.612l-5.013,8.997
					C324.416,220.044,323.691,220.25,323.122,219.933z"/>
				<path style="fill:#263238;" d="M322.404,223.41l-4.108-2.289c-0.308-0.172-0.419-0.561-0.247-0.869l2.006-3.6
					c0.172-0.308,0.56-0.419,0.868-0.247l4.108,2.289c0.308,0.172,0.419,0.561,0.247,0.869l-2.006,3.6
					C323.101,223.471,322.712,223.582,322.404,223.41z"/>
				<path style="fill:#263238;" d="M334.76,211.017c-2.425,0-4.867-0.594-7.113-1.846c-7.239-4.033-9.739-13.397-5.573-20.875
					c4.164-7.477,13.442-10.28,20.684-6.244c7.239,4.033,9.739,13.398,5.573,20.875l0,0
					C345.457,208.084,340.151,211.017,334.76,211.017z M335.639,182.337c-4.642,0-9.22,2.538-11.704,6.996
					c-3.594,6.451-1.463,14.515,4.749,17.977c6.213,3.457,14.19,1.029,17.785-5.42l0,0c3.593-6.45,1.463-14.515-4.749-17.977
					C339.801,182.845,337.713,182.337,335.639,182.337z"/>
			</g>
			<g>
				<path style="fill:#263238;" d="M281.434,230.286c0,0,4.537,50.039,3.22,77.351c-1.37,28.408-21.494,84.318-21.494,84.318
					l-16.007-0.34c0,0,10.969-61.623,10.694-89.849c-0.3-30.771-3.129-76.865-3.129-76.865L281.434,230.286z"/>
				<path style="opacity:0.2;" d="M260.516,237.929c-1.822-2.16-3.461-0.097-4.845,3.908c0.566,10.781,1.258,25.339,1.709,39.451
					C265.193,269.413,266.409,244.921,260.516,237.929z"/>
				<g>
					<polygon style="fill:#407BFF;" points="245.186,392.335 264.009,392.711 266.024,386.458 246.368,386.413 					"/>
					<polygon style="opacity:0.4;fill:#FFFFFF;" points="245.186,392.335 264.009,392.711 266.024,386.458 246.368,386.413 					"/>
				</g>
			</g>
			<polygon style="fill:#FF8B7B;" points="180.068,372.119 186.772,377.919 201.897,363.86 195.193,358.059 			"/>
			<path style="fill:#263238;" d="M187.359,378.202l-5.055-8.256c-0.189-0.309-0.576-0.459-0.931-0.362l-7.906,2.177
				c-0.82,0.226-1.183,1.115-0.733,1.822c1.876,2.951,4.692,7.159,6.984,10.902c2.68,4.377,2.667,4.303,5.809,9.437
				c1.9,3.104,5.692,2.251,5.193,0.797c-2.275-6.621-3.008-7.542-2.858-14.374C187.877,379.603,187.758,378.854,187.359,378.202z"/>
			<g>
				<polygon style="opacity:0.2;" points="201.892,363.862 194.097,371.111 187.39,365.307 195.185,358.06 				"/>
			</g>
			<path style="fill:#407BFF;" d="M187.955,382.144c-0.528-0.846-0.947-1.861-1.213-2.589c-0.031-0.084-0.005-0.179,0.065-0.235
				c0.07-0.057,0.167-0.063,0.243-0.015c0.398,0.248,3.886,2.461,3.886,3.66c0,0.23-0.111,0.421-0.321,0.553
				c-0.355,0.222-0.728,0.268-1.108,0.137C188.929,383.457,188.403,382.861,187.955,382.144z M187.366,380.009
				c0.73,1.806,1.564,3.005,2.278,3.25c0.258,0.089,0.503,0.057,0.749-0.097c0.109-0.068,0.124-0.138,0.124-0.196
				C190.516,382.322,188.759,380.937,187.366,380.009z"/>
			<path style="fill:#407BFF;" d="M186.761,379.594c-0.025-0.039-0.036-0.086-0.031-0.134c0.008-0.076,0.058-0.142,0.129-0.171
				c0.152-0.063,3.739-1.512,4.657,0.403c0.242,0.505,0.087,0.786-0.086,0.934c-0.767,0.652-3.599-0.263-4.612-0.971
				C186.796,379.639,186.776,379.618,186.761,379.594z M191.074,379.757c-0.673-1.077-2.767-0.521-3.653-0.225
				c1.18,0.641,3.279,1.163,3.738,0.774c0.033-0.028,0.133-0.113-0.021-0.432C191.119,379.833,191.097,379.794,191.074,379.757z"/>
			<g>
				<path style="fill:#263238;" d="M265.206,227.015c0,0-8.428,46.845-14.463,73.514c-6.277,27.74-49.847,69.6-49.847,69.6
					l-11.976-10.626c0,0,31.816-41.56,36.441-69.406c5.042-30.357,9.593-69.18,9.593-69.18L265.206,227.015z"/>
				<g>
					<polygon style="fill:#407BFF;" points="186.516,359.539 200.195,371.793 204.842,367.883 190.41,354.013 					"/>
					<polygon style="opacity:0.4;fill:#FFFFFF;" points="186.516,359.539 200.195,371.793 204.842,367.883 190.41,354.013 					"/>
				</g>
			</g>
			<g>
				<path style="fill:#407BFF;" d="M296.06,155.072c0,0,4.967,28.309-14.626,75.214c-14.005-2.823-39.665-7.995-46.48-9.369
					c1.118-7.2,12.617-41.101,12.512-76.107c0,0,8.289,0.007,15.955,1.172c5.997,0.911,14.633,2.455,19.758,3.984
					C289.936,151.982,296.06,155.072,296.06,155.072z"/>
				<g>
					<path style="opacity:0.2;fill:#263238;" d="M287.545,183.398c-0.624,9.161-6.758,16.306-13.581,15.846
						c-2.188-0.15-4.286-1.073-6.07-2.66l1.936-3.778c1.304,1.165,2.842,1.837,4.441,1.947c4.985,0.34,9.475-4.885,9.927-11.586
						L287.545,183.398z"/>
					<path style="opacity:0.5;fill:#FFFFFF;" d="M287.545,183.398l-3.347-0.23c0.118-1.778-0.053-3.556-0.507-5.213
						c-0.454-1.657-1.167-3.144-2.115-4.349l2.389-3.296c1.29,1.657,2.27,3.696,2.894,5.956
						C287.474,178.527,287.708,180.957,287.545,183.398z"/>
					<path style="opacity:0.4;fill:#263238;" d="M283.966,170.311l-2.389,3.296c-0.747-0.974-1.623-1.757-2.587-2.309
						c-0.964-0.552-2.006-0.873-3.065-0.953l0.307-4.49c1.449,0.1,2.865,0.541,4.189,1.304
						C281.742,167.911,282.942,168.986,283.966,170.311z"/>
					<path style="opacity:0.2;fill:#FFFFFF;" d="M276.23,165.854l-0.307,4.49c-4.995-0.339-9.475,4.886-9.928,11.586
						c-0.294,4.35,1.164,8.508,3.834,10.877l-1.936,3.778c-3.651-3.243-5.655-8.928-5.245-14.885
						C263.274,172.539,269.397,165.395,276.23,165.854z"/>
				</g>
				<path style="opacity:0.2;" d="M246.055,167.768c-0.424,3.522-0.921,6.969-1.467,10.31c3.883-1.801,9.181-11.327,8.615-16.578
					L246.055,167.768z"/>
			</g>
			<path style="fill:#FF8B7B;" d="M269.864,124.129c-0.035,6.609-1.139,18.507-6.442,21.853c0,0,1.784,7.351,15.466,12.351
				c6.709-2.968,4.292-8.367,4.292-8.367c-6.748-3.122-5.505-8.345-3.274-13.035L269.864,124.129z"/>
			<path style="opacity:0.2;" d="M273.957,129.352l5.944,7.572c-0.532,1.109-1.001,2.248-1.316,3.384
				c-2.629-0.937-5.75-4.66-5.466-7.554C273.26,131.311,273.594,129.964,273.957,129.352z"/>
			<path style="fill:#263238;" d="M289.432,122.207c1.234-3.012,1.419-6.435-0.98-8.724c0.144-1.958,1.627-4.275,3.674-6.063
				C295.063,105.791,300.964,117.136,289.432,122.207z"/>
			<path style="fill:#263238;" d="M292.898,112.5c-0.537,0-0.981-0.427-0.998-0.968c-0.019-0.551,0.412-1.012,0.962-1.031l0,0
				c0.193-0.009,4.758-0.262,6.229-5.6c0.147-0.533,0.696-0.846,1.229-0.698c0.532,0.146,0.845,0.697,0.698,1.229
				c-1.497,5.433-5.945,6.998-8.088,7.066C292.921,112.5,292.909,112.5,292.898,112.5z"/>
			<path style="fill:#FF8B7B;" d="M271.036,114.41c-1.207,8.715-2.356,13.754,1.101,19.049c5.2,7.964,16.62,6.164,20.406-2.015
				c3.408-7.362,4.809-20.376-2.927-25.501C281.996,100.895,272.243,105.695,271.036,114.41z"/>
			<path style="fill:#263238;" d="M270.75,122.125c1.257,0.05,2.238,0.192,2.994,0.365c1.06,0.242,2.05-0.626,1.968-1.71
				c-0.161-2.127,0.414-4.299,2.372-5.242c0.306-1.25-0.152-2.994-1.067-4.523c-0.468-0.781,0.316-1.708,1.164-1.378
				c4.337,1.684,10.885,4.328,14.179,2.613c4.266-2.22,9.163-10.144,2.705-10.686c-3.083-0.259-2.732-2.022-5.065-3.606
				c-2.333-1.583-7.972-1.393-12.333,0.75c-4.24,2.083-10.958-1.833-13.542,1.333c-1.886,2.312-0.703,5.583-0.703,5.583
				s-3.713,0.5-4.342,7.508c-0.47,5.233,7.935,15.154,10.553,16.219C271.125,123.917,270.75,122.125,270.75,122.125z"/>
			<path style="fill:#263238;" d="M264.634,108.104c-0.414,0-0.801-0.259-0.944-0.672c-0.156-0.436-1.072-2.56-3.822-1.611
				c-0.522,0.182-1.093-0.099-1.27-0.62c-0.18-0.523,0.098-1.092,0.62-1.271c1.463-0.505,2.789-0.472,3.94,0.093
				c1.762,0.864,2.397,2.682,2.423,2.759c0.179,0.523-0.102,1.091-0.624,1.268C264.85,108.087,264.74,108.104,264.634,108.104z"/>
			<path style="fill:#263238;" d="M283.608,119.448c-0.141,0.701,0.116,1.344,0.574,1.436c0.458,0.092,0.944-0.401,1.085-1.102
				c0.141-0.701-0.116-1.344-0.574-1.436C284.235,118.254,283.749,118.747,283.608,119.448z"/>
			<path style="fill:#263238;" d="M291.53,121.045c-0.141,0.701,0.116,1.344,0.574,1.436c0.458,0.092,0.944-0.401,1.085-1.102
				c0.141-0.701-0.116-1.344-0.574-1.436C292.158,119.851,291.672,120.344,291.53,121.045z"/>
			<path style="fill:#FF5652;" d="M288.941,120.886c0,0,0.779,4.365,2.14,6.67c-1.473,0.907-3.475-0.047-3.475-0.047
				L288.941,120.886z"/>
			<path style="fill:#263238;" d="M285.179,129.034c-0.001,0-0.003-0.001-0.004-0.001c-3.298-0.665-4.353-3.23-4.397-3.339
				c-0.043-0.108,0.01-0.229,0.117-0.272c0.108-0.043,0.23,0.009,0.273,0.117c0.01,0.025,1.022,2.465,4.09,3.083
				c0.114,0.023,0.187,0.134,0.164,0.247C285.399,128.981,285.291,129.054,285.179,129.034z"/>
			<path style="fill:#263238;" d="M285.425,115.429c0.074,0.054,0.13,0.132,0.156,0.227c0.062,0.224-0.07,0.455-0.293,0.517
				c-2.239,0.617-3.707-0.651-3.768-0.705c-0.174-0.154-0.19-0.419-0.036-0.593c0.153-0.173,0.42-0.187,0.591-0.038l0,0
				c0.048,0.042,1.203,1.018,2.989,0.526C285.194,115.327,285.325,115.356,285.425,115.429z"/>
			<path style="fill:#263238;" d="M295.996,117.374c-0.159,0.002-0.312-0.087-0.385-0.24c-0.803-1.692-2.333-1.918-2.348-1.92
				c-0.23-0.031-0.391-0.243-0.36-0.472c0.031-0.23,0.247-0.391,0.472-0.36c0.081,0.011,1.999,0.293,2.995,2.392
				c0.099,0.21,0.01,0.46-0.199,0.559C296.114,117.36,296.055,117.373,295.996,117.374z"/>
			<path style="fill:#FF8B7B;" d="M254.488,160.257c-2.081,2.174-4.333,4.499-6.441,6.812c-2.126,2.328-4.265,4.649-6.324,7.02
				c-4.13,4.722-8.127,9.557-11.607,14.526l-1.259,1.824c-0.252,0.352-0.472,0.737-0.664,1.161
				c-0.382,0.845-0.691,1.845-0.843,2.986c-0.295,2.284-0.104,5.022,0.476,7.808c1.119,5.588,3.524,11.521,6.135,16.972
				l-5.568,3.888c-1.206-1.393-2.211-2.693-3.228-4.102c-0.985-1.403-1.952-2.828-2.831-4.319c-1.783-2.97-3.352-6.124-4.586-9.561
				c-1.193-3.44-2.119-7.189-2.043-11.396c0.047-2.095,0.342-4.316,1.087-6.514c0.368-1.097,0.843-2.185,1.424-3.226l1.332-2.293
				c0.867-1.509,1.801-2.928,2.727-4.374c0.961-1.4,1.906-2.824,2.904-4.182c1.952-2.767,4.035-5.396,6.141-7.999
				c2.115-2.595,4.298-5.114,6.551-7.57c2.284-2.46,4.494-4.846,7.012-7.246L254.488,160.257z"/>
			<path style="fill:#407BFF;" d="M247.466,144.811c-8.47,0.307-21.074,23.676-21.074,23.676
				c1.662,4.036,8.903,10.327,12.757,11.355c0,0,10.075-6.41,15.554-15.895C260.444,154.007,256.538,144.482,247.466,144.811z"/>
			<path style="fill:#FF8B7B;" d="M231.748,217.484l9.367,1.744l-7.478,8.439c0,0-6.393-2.824-6.404-6.286L231.748,217.484z"/>
			<path style="fill:#FF8B7B;" d="M243.781,228.101l-1.907,1.958c-1.357,1.393-3.556,1.507-5.05,0.263l-3.186-2.654l7.478-8.439
				l2.996,4.066C245.192,224.761,245.052,226.795,243.781,228.101z"/>
			<path style="fill:#FF8B7B;" d="M266.03,120.454c-0.06,2.371,0.982,4.549,2.348,5.94c2.055,2.092,4.538,0.606,5.187-2.095
				c0.584-2.432,0.218-6.451-2.431-7.531C268.523,115.704,266.098,117.742,266.03,120.454z"/>
		</g>
	</g>
</g>
<g id="Data">
	<g>
		<g>
			<path style="fill:#407BFF;" d="M92.03,365.889H76.742c-2.352,0-4.258-1.906-4.258-4.258v-26.897c0-2.352,1.906-4.258,4.258-4.258
				H92.03c2.352,0,4.258,1.906,4.258,4.258v26.897C96.287,363.983,94.381,365.889,92.03,365.889z"/>
			<path style="fill:#407BFF;" d="M119.632,365.889h-15.287c-2.351,0-4.258-1.906-4.258-4.258v-45.739
				c0-2.352,1.906-4.258,4.258-4.258h15.287c2.352,0,4.258,1.906,4.258,4.258v45.739
				C123.89,363.983,121.983,365.889,119.632,365.889z"/>
			<path style="fill:#407BFF;" d="M147.234,365.889h-15.287c-2.352,0-4.258-1.906-4.258-4.258v-37.564
				c0-2.351,1.906-4.258,4.258-4.258h15.287c2.352,0,4.258,1.906,4.258,4.258v37.564
				C151.492,363.983,149.586,365.889,147.234,365.889z"/>
			<path style="fill:#407BFF;" d="M174.837,365.889h-15.287c-2.352,0-4.258-1.906-4.258-4.258v-49.23
				c0-2.352,1.906-4.258,4.258-4.258h15.287c2.352,0,4.258,1.906,4.258,4.258v49.23
				C179.094,363.983,177.188,365.889,174.837,365.889z"/>
			<path style="fill:#407BFF;" d="M202.439,365.889h-15.287c-2.351,0-4.258-1.906-4.258-4.258v-61.564
				c0-2.351,1.906-4.258,4.258-4.258h15.287c2.352,0,4.258,1.906,4.258,4.258v61.564
				C206.697,363.983,204.79,365.889,202.439,365.889z"/>
			<path style="fill:#407BFF;" d="M230.041,365.889h-15.287c-2.352,0-4.258-1.906-4.258-4.258v-74.564
				c0-2.351,1.906-4.258,4.258-4.258h15.287c2.352,0,4.258,1.906,4.258,4.258v74.564
				C234.299,363.983,232.393,365.889,230.041,365.889z"/>
			<path style="fill:#407BFF;" d="M257.644,365.889h-15.287c-2.351,0-4.258-1.906-4.258-4.258v-54.897
				c0-2.352,1.906-4.258,4.258-4.258h15.287c2.351,0,4.258,1.906,4.258,4.258v54.897
				C261.901,363.983,259.995,365.889,257.644,365.889z"/>
			<path style="fill:#407BFF;" d="M285.246,365.889h-15.287c-2.352,0-4.258-1.906-4.258-4.258v-80.23
				c0-2.352,1.906-4.258,4.258-4.258h15.287c2.352,0,4.258,1.906,4.258,4.258v80.23
				C289.504,363.983,287.598,365.889,285.246,365.889z"/>
			<path style="fill:#407BFF;" d="M312.848,365.889h-15.287c-2.352,0-4.258-1.906-4.258-4.258v-87.897
				c0-2.352,1.906-4.258,4.258-4.258h15.287c2.351,0,4.258,1.906,4.258,4.258v87.897C317.106,363.983,315.2,365.889,312.848,365.889
				z"/>
			<path style="fill:#407BFF;" d="M340.451,365.889h-15.287c-2.352,0-4.258-1.906-4.258-4.258v-83.23
				c0-2.352,1.906-4.258,4.258-4.258h15.287c2.351,0,4.258,1.906,4.258,4.258v83.23
				C344.708,363.983,342.802,365.889,340.451,365.889z"/>
			<path style="fill:#407BFF;" d="M368.053,365.889h-15.287c-2.351,0-4.258-1.906-4.258-4.258V251.115
				c0-2.352,1.906-4.258,4.258-4.258h15.287c2.352,0,4.258,1.906,4.258,4.258v110.516
				C372.311,363.983,370.405,365.889,368.053,365.889z"/>
			<path style="fill:#407BFF;" d="M395.655,365.889h-15.287c-2.352,0-4.258-1.906-4.258-4.258v-99.183
				c0-2.352,1.906-4.258,4.258-4.258h15.287c2.352,0,4.258,1.906,4.258,4.258v99.183
				C399.913,363.983,398.007,365.889,395.655,365.889z"/>
			<path style="fill:#407BFF;" d="M423.258,365.889H407.97c-2.352,0-4.258-1.906-4.258-4.258V234.837
				c0-2.352,1.906-4.258,4.258-4.258h15.287c2.352,0,4.258,1.906,4.258,4.258v126.794
				C427.515,363.983,425.609,365.889,423.258,365.889z"/>
		</g>
		<g>
			<path style="fill:#263238;" d="M84.386,346.246c-0.155,0-0.307-0.071-0.405-0.206c-0.163-0.223-0.113-0.536,0.11-0.698
				l1.213-0.883c0.224-0.163,0.536-0.113,0.699,0.11c0.163,0.223,0.113,0.536-0.11,0.698l-1.213,0.883
				C84.591,346.215,84.488,346.246,84.386,346.246z"/>
			<path style="fill:#263238;" d="M89.659,342.408c-0.154,0-0.307-0.071-0.405-0.206c-0.163-0.223-0.113-0.535,0.11-0.698
				l2.436-1.773c0.224-0.162,0.536-0.113,0.699,0.11c0.163,0.223,0.113,0.535-0.11,0.698l-2.436,1.773
				C89.864,342.377,89.761,342.408,89.659,342.408z M96.154,337.68c-0.155,0-0.307-0.071-0.405-0.206
				c-0.163-0.223-0.113-0.536,0.11-0.698l2.436-1.772c0.223-0.162,0.536-0.113,0.698,0.11c0.162,0.223,0.113,0.536-0.11,0.698
				l-2.436,1.773C96.359,337.648,96.256,337.68,96.154,337.68z M102.649,332.952c-0.154,0-0.307-0.071-0.405-0.206
				c-0.163-0.223-0.113-0.535,0.11-0.698l2.436-1.773c0.223-0.161,0.536-0.114,0.699,0.11c0.163,0.223,0.113,0.535-0.11,0.698
				l-2.436,1.773C102.854,332.921,102.752,332.952,102.649,332.952z M109.145,328.224c-0.154,0-0.307-0.071-0.405-0.206
				c-0.163-0.223-0.113-0.535,0.11-0.698l2.436-1.773c0.224-0.161,0.536-0.114,0.699,0.11c0.163,0.223,0.113,0.535-0.11,0.698
				l-2.436,1.773C109.35,328.192,109.247,328.224,109.145,328.224z M115.64,323.495c-0.155,0-0.307-0.071-0.405-0.206
				c-0.163-0.223-0.113-0.536,0.11-0.698l2.436-1.772c0.222-0.162,0.536-0.113,0.698,0.11c0.163,0.223,0.113,0.536-0.11,0.698
				l-2.436,1.772C115.845,323.464,115.742,323.495,115.64,323.495z M122.135,318.768c-0.154,0-0.307-0.071-0.405-0.206
				c-0.163-0.223-0.113-0.535,0.11-0.698l2.436-1.773c0.223-0.162,0.536-0.113,0.699,0.11c0.163,0.223,0.113,0.535-0.11,0.698
				l-2.436,1.773C122.34,318.736,122.237,318.768,122.135,318.768z M128.63,314.039c-0.154,0-0.307-0.071-0.405-0.206
				c-0.163-0.223-0.113-0.535,0.11-0.698l2.436-1.773c0.223-0.162,0.536-0.113,0.699,0.11c0.163,0.223,0.113,0.535-0.11,0.698
				l-2.436,1.773C128.835,314.008,128.732,314.039,128.63,314.039z M135.126,309.31c-0.155,0-0.307-0.071-0.405-0.206
				c-0.163-0.223-0.113-0.536,0.11-0.698l2.436-1.773c0.224-0.163,0.536-0.113,0.699,0.11c0.163,0.223,0.113,0.536-0.11,0.698
				l-2.436,1.773C135.331,309.279,135.227,309.31,135.126,309.31z M141.621,304.582c-0.155,0-0.307-0.071-0.405-0.206
				c-0.163-0.223-0.113-0.536,0.11-0.698l2.436-1.772c0.224-0.163,0.537-0.113,0.699,0.11c0.163,0.223,0.113,0.536-0.11,0.698
				l-2.436,1.772C141.826,304.551,141.723,304.582,141.621,304.582z M148.116,299.854c-0.154,0-0.307-0.071-0.405-0.206
				c-0.163-0.223-0.113-0.535,0.11-0.698l2.436-1.773c0.223-0.162,0.536-0.113,0.699,0.11c0.163,0.223,0.113,0.535-0.11,0.698
				l-2.436,1.773C148.321,299.823,148.218,299.854,148.116,299.854z M154.611,295.126c-0.155,0-0.307-0.071-0.405-0.206
				c-0.163-0.223-0.113-0.535,0.11-0.698l2.436-1.773c0.223-0.162,0.536-0.113,0.699,0.11c0.163,0.223,0.113,0.536-0.11,0.698
				l-2.436,1.773C154.816,295.095,154.713,295.126,154.611,295.126z M161.107,290.397c-0.155,0-0.307-0.071-0.405-0.206
				c-0.163-0.223-0.113-0.536,0.11-0.698l2.436-1.772c0.224-0.162,0.537-0.113,0.699,0.11c0.163,0.223,0.113,0.536-0.11,0.698
				l-2.436,1.772C161.312,290.366,161.209,290.397,161.107,290.397z M167.602,285.67c-0.154,0-0.307-0.071-0.405-0.206
				c-0.163-0.223-0.113-0.535,0.11-0.698l2.436-1.773c0.223-0.161,0.535-0.114,0.699,0.11c0.163,0.223,0.113,0.535-0.11,0.698
				l-2.436,1.773C167.807,285.639,167.704,285.67,167.602,285.67z M174.097,280.941c-0.154,0-0.307-0.071-0.405-0.206
				c-0.163-0.223-0.113-0.536,0.11-0.698l2.436-1.773c0.224-0.162,0.535-0.113,0.699,0.11c0.163,0.223,0.113,0.535-0.11,0.698
				l-2.436,1.773C174.302,280.91,174.199,280.941,174.097,280.941z M180.593,276.213c-0.155,0-0.307-0.071-0.405-0.206
				c-0.163-0.223-0.113-0.536,0.11-0.698l2.436-1.772c0.224-0.162,0.537-0.113,0.699,0.11c0.163,0.223,0.113,0.536-0.11,0.698
				l-2.436,1.772C180.798,276.182,180.695,276.213,180.593,276.213z M187.088,271.485c-0.154,0-0.307-0.071-0.405-0.206
				c-0.163-0.223-0.113-0.535,0.11-0.698l2.436-1.773c0.224-0.162,0.535-0.113,0.699,0.11c0.163,0.223,0.113,0.535-0.11,0.698
				l-2.436,1.773C187.293,271.454,187.19,271.485,187.088,271.485z"/>
			<path style="fill:#263238;" d="M193.583,266.756c-0.155,0-0.307-0.071-0.405-0.206c-0.163-0.223-0.113-0.536,0.11-0.698
				l1.213-0.883c0.121-0.087,0.277-0.117,0.419-0.08l1.452,0.375c0.268,0.069,0.428,0.342,0.359,0.609
				c-0.069,0.268-0.343,0.424-0.609,0.359l-1.224-0.316l-1.022,0.744C193.788,266.725,193.685,266.756,193.583,266.756z"/>
			<path style="fill:#263238;" d="M305.163,294.358c-0.03,0-0.058-0.003-0.083-0.009l-2.842-0.733
				c-0.268-0.069-0.428-0.342-0.359-0.609c0.069-0.267,0.34-0.429,0.609-0.359l2.761,0.713c0.172,0.005,0.34,0.086,0.426,0.237
				c0.137,0.24,0.088,0.525-0.152,0.662C305.433,294.311,305.283,294.358,305.163,294.358z M297.495,292.376
				c-0.041,0-0.083-0.005-0.125-0.016l-2.92-0.754c-0.268-0.069-0.428-0.342-0.359-0.609c0.069-0.267,0.34-0.429,0.609-0.359
				l2.92,0.754c0.268,0.069,0.428,0.342,0.359,0.609C297.921,292.227,297.718,292.376,297.495,292.376z M309.637,291.825
				c-0.173,0-0.342-0.09-0.434-0.251c-0.138-0.24-0.055-0.546,0.185-0.683l2.617-1.5c0.239-0.138,0.545-0.056,0.683,0.185
				c0.138,0.24,0.055,0.546-0.185,0.683l-2.617,1.5C309.807,291.804,309.722,291.825,309.637,291.825z M289.707,290.366
				c-0.041,0-0.083-0.005-0.125-0.016l-2.921-0.754c-0.268-0.069-0.428-0.342-0.359-0.609c0.069-0.267,0.338-0.428,0.609-0.359
				l2.921,0.754c0.268,0.069,0.428,0.342,0.359,0.609C290.133,290.217,289.93,290.366,289.707,290.366z M281.919,288.356
				c-0.041,0-0.083-0.005-0.125-0.016l-2.921-0.754c-0.267-0.069-0.428-0.342-0.359-0.609c0.069-0.268,0.338-0.427,0.609-0.359
				l2.921,0.754c0.268,0.069,0.428,0.342,0.359,0.609C282.345,288.207,282.142,288.356,281.919,288.356z M316.615,287.825
				c-0.173,0-0.342-0.09-0.434-0.251c-0.138-0.24-0.055-0.546,0.185-0.683l2.617-1.5c0.24-0.137,0.545-0.057,0.683,0.185
				c0.138,0.24,0.055,0.546-0.185,0.683l-2.617,1.5C316.785,287.804,316.7,287.825,316.615,287.825z M274.131,286.346
				c-0.041,0-0.083-0.005-0.125-0.016l-2.921-0.753c-0.268-0.069-0.428-0.342-0.359-0.609c0.069-0.268,0.339-0.426,0.609-0.359
				l2.921,0.753c0.268,0.069,0.428,0.342,0.359,0.609C274.557,286.196,274.353,286.346,274.131,286.346z M266.342,284.336
				c-0.041,0-0.083-0.005-0.125-0.016l-2.92-0.753c-0.268-0.069-0.428-0.342-0.359-0.609c0.069-0.268,0.339-0.432,0.609-0.359
				l2.92,0.753c0.268,0.069,0.428,0.342,0.359,0.609C266.768,284.186,266.565,284.336,266.342,284.336z M323.594,283.825
				c-0.173,0-0.342-0.09-0.434-0.251c-0.138-0.24-0.055-0.546,0.185-0.683l2.617-1.5c0.238-0.138,0.546-0.057,0.683,0.185
				c0.138,0.24,0.055,0.546-0.185,0.683l-2.617,1.5C323.764,283.804,323.679,283.825,323.594,283.825z M258.554,282.326
				c-0.041,0-0.083-0.005-0.125-0.016l-2.92-0.753c-0.268-0.069-0.428-0.342-0.359-0.609c0.069-0.268,0.339-0.431,0.609-0.359
				l2.92,0.753c0.268,0.069,0.428,0.342,0.359,0.609C258.979,282.177,258.776,282.326,258.554,282.326z M250.766,280.316
				c-0.042,0-0.083-0.005-0.126-0.016l-2.92-0.754c-0.268-0.069-0.428-0.342-0.359-0.609c0.069-0.269,0.34-0.431,0.609-0.359
				l2.92,0.754c0.268,0.069,0.428,0.342,0.359,0.609C251.191,280.167,250.988,280.316,250.766,280.316z M330.572,279.825
				c-0.173,0-0.342-0.09-0.434-0.251c-0.138-0.24-0.055-0.546,0.185-0.683l2.617-1.5c0.239-0.138,0.546-0.057,0.683,0.185
				c0.138,0.24,0.055,0.546-0.184,0.683l-2.617,1.5C330.742,279.804,330.657,279.825,330.572,279.825z M242.978,278.307
				c-0.042,0-0.083-0.005-0.126-0.016l-2.921-0.754c-0.267-0.069-0.428-0.342-0.359-0.609c0.069-0.268,0.34-0.432,0.609-0.359
				l2.921,0.754c0.268,0.069,0.428,0.342,0.359,0.609C243.403,278.157,243.2,278.307,242.978,278.307z M235.189,276.297
				c-0.042,0-0.083-0.005-0.126-0.016l-2.92-0.754c-0.268-0.069-0.428-0.342-0.359-0.609c0.069-0.269,0.342-0.426,0.609-0.359
				l2.92,0.754c0.268,0.069,0.428,0.342,0.359,0.609C235.615,276.147,235.412,276.297,235.189,276.297z M337.551,275.825
				c-0.173,0-0.342-0.09-0.434-0.251c-0.138-0.24-0.055-0.546,0.185-0.683l2.616-1.5c0.24-0.137,0.545-0.057,0.683,0.185
				c0.138,0.24,0.055,0.546-0.185,0.683l-2.616,1.5C337.721,275.804,337.636,275.825,337.551,275.825z M227.401,274.287
				c-0.042,0-0.083-0.005-0.126-0.016l-2.921-0.754c-0.267-0.069-0.428-0.342-0.359-0.609c0.069-0.269,0.342-0.426,0.609-0.359
				l2.921,0.754c0.268,0.069,0.428,0.342,0.359,0.609C227.827,274.138,227.624,274.287,227.401,274.287z M219.613,272.277
				c-0.041,0-0.083-0.005-0.125-0.016l-2.92-0.754c-0.268-0.069-0.428-0.342-0.359-0.609c0.069-0.268,0.341-0.427,0.609-0.359
				l2.92,0.754c0.268,0.069,0.428,0.342,0.359,0.609C220.038,272.128,219.835,272.277,219.613,272.277z M344.529,271.825
				c-0.173,0-0.342-0.09-0.434-0.251c-0.138-0.24-0.055-0.546,0.185-0.683l2.616-1.5c0.238-0.138,0.545-0.056,0.683,0.185
				c0.138,0.24,0.055,0.546-0.185,0.683l-2.616,1.5C344.699,271.804,344.614,271.825,344.529,271.825z M211.825,270.268
				c-0.042,0-0.084-0.005-0.126-0.016l-2.921-0.754c-0.267-0.069-0.428-0.342-0.359-0.609c0.07-0.268,0.344-0.426,0.609-0.359
				l2.921,0.754c0.267,0.069,0.428,0.342,0.359,0.609C212.25,270.118,212.047,270.268,211.825,270.268z M204.036,268.258
				c-0.042,0-0.083-0.005-0.126-0.016l-2.92-0.754c-0.268-0.069-0.428-0.342-0.359-0.609c0.069-0.268,0.342-0.427,0.609-0.359
				l2.92,0.754c0.268,0.069,0.428,0.342,0.359,0.609C204.461,268.108,204.258,268.258,204.036,268.258z M351.507,267.825
				c-0.173,0-0.342-0.09-0.434-0.251c-0.138-0.24-0.055-0.546,0.185-0.683l2.617-1.5c0.239-0.137,0.545-0.057,0.683,0.185
				c0.138,0.24,0.055,0.546-0.185,0.683l-2.617,1.5C351.677,267.804,351.592,267.825,351.507,267.825z M358.485,263.825
				c-0.173,0-0.342-0.09-0.434-0.251c-0.138-0.24-0.055-0.546,0.185-0.683l2.617-1.5c0.239-0.137,0.545-0.056,0.683,0.185
				c0.138,0.24,0.055,0.546-0.185,0.683l-2.617,1.5C358.655,263.804,358.57,263.825,358.485,263.825z M365.464,259.825
				c-0.173,0-0.342-0.09-0.434-0.251c-0.138-0.24-0.055-0.546,0.185-0.683l2.617-1.5c0.239-0.138,0.546-0.057,0.683,0.185
				c0.138,0.24,0.055,0.546-0.184,0.683l-2.617,1.5C365.634,259.804,365.549,259.825,365.464,259.825z M372.442,255.825
				c-0.173,0-0.342-0.09-0.434-0.251c-0.138-0.24-0.055-0.546,0.185-0.683l2.617-1.5c0.239-0.137,0.545-0.057,0.683,0.185
				c0.138,0.24,0.055,0.546-0.185,0.683l-2.617,1.5C372.612,255.804,372.527,255.825,372.442,255.825z M379.421,251.825
				c-0.173,0-0.342-0.09-0.434-0.251c-0.138-0.24-0.055-0.546,0.185-0.683l2.616-1.5c0.239-0.138,0.546-0.056,0.683,0.185
				c0.138,0.24,0.055,0.546-0.185,0.683l-2.616,1.5C379.591,251.804,379.506,251.825,379.421,251.825z M386.399,247.825
				c-0.173,0-0.342-0.09-0.434-0.251c-0.138-0.24-0.055-0.546,0.185-0.683l2.616-1.5c0.239-0.138,0.546-0.056,0.683,0.185
				c0.138,0.24,0.055,0.546-0.185,0.683l-2.616,1.5C386.569,247.804,386.484,247.825,386.399,247.825z M393.377,243.825
				c-0.173,0-0.342-0.09-0.434-0.251c-0.138-0.24-0.055-0.546,0.185-0.683l2.617-1.5c0.239-0.137,0.545-0.057,0.683,0.185
				c0.138,0.24,0.055,0.546-0.185,0.683l-2.617,1.5C393.547,243.804,393.462,243.825,393.377,243.825z M400.355,239.825
				c-0.173,0-0.342-0.09-0.434-0.251c-0.138-0.24-0.055-0.546,0.185-0.683l2.617-1.5c0.24-0.138,0.545-0.057,0.683,0.185
				c0.138,0.24,0.055,0.546-0.184,0.683l-2.617,1.5C400.525,239.804,400.44,239.825,400.355,239.825z M407.334,235.825
				c-0.173,0-0.342-0.09-0.434-0.251c-0.138-0.24-0.055-0.546,0.185-0.683l2.617-1.5c0.24-0.138,0.545-0.057,0.683,0.185
				c0.138,0.24,0.055,0.546-0.185,0.683l-2.617,1.5C407.504,235.804,407.419,235.825,407.334,235.825z"/>
			<path style="fill:#263238;" d="M414.313,231.825c-0.173,0-0.342-0.09-0.434-0.251c-0.138-0.24-0.055-0.546,0.185-0.683
				l1.302-0.746c0.24-0.137,0.545-0.057,0.683,0.185c0.138,0.24,0.055,0.546-0.185,0.683l-1.302,0.746
				C414.482,231.804,414.397,231.825,414.313,231.825z"/>
		</g>
		<g>
			<path style="fill:#FFFFFF;" d="M88.489,345.746c0,2.266-1.837,4.103-4.103,4.103c-2.266,0-4.103-1.837-4.103-4.103
				c0-2.266,1.837-4.103,4.103-4.103C86.652,341.643,88.489,343.48,88.489,345.746z"/>
			<path style="fill:#263238;" d="M84.386,350.349c-2.538,0-4.602-2.064-4.602-4.603c0-2.538,2.064-4.603,4.602-4.603
				c2.538,0,4.603,2.065,4.603,4.603C88.989,348.284,86.924,350.349,84.386,350.349z M84.386,342.143
				c-1.986,0-3.602,1.616-3.602,3.603c0,1.986,1.616,3.603,3.602,3.603c1.987,0,3.603-1.616,3.603-3.603
				C87.989,343.759,86.373,342.143,84.386,342.143z"/>
		</g>
		<g>
			<circle style="fill:#FFFFFF;" cx="194.795" cy="265.374" r="4.103"/>
			<path style="fill:#263238;" d="M194.795,269.977c-2.538,0-4.603-2.064-4.603-4.603c0-2.538,2.065-4.603,4.603-4.603
				s4.603,2.065,4.603,4.603C199.398,267.912,197.333,269.977,194.795,269.977z M194.795,261.771c-1.987,0-3.603,1.616-3.603,3.603
				c0,1.986,1.616,3.603,3.603,3.603c1.986,0,3.603-1.616,3.603-3.603C198.398,263.387,196.782,261.771,194.795,261.771z"/>
		</g>
		<g>
			<circle style="fill:#FFFFFF;" cx="305.205" cy="293.865" r="4.103"/>
			<path style="fill:#263238;" d="M305.205,298.468c-2.538,0-4.604-2.065-4.604-4.603c0-2.538,2.065-4.603,4.604-4.603
				c2.538,0,4.602,2.064,4.602,4.603C309.808,296.403,307.743,298.468,305.205,298.468z M305.205,290.263
				c-1.987,0-3.604,1.616-3.604,3.603c0,1.986,1.616,3.603,3.604,3.603c1.986,0,3.602-1.616,3.602-3.603
				C308.808,291.879,307.191,290.263,305.205,290.263z"/>
		</g>
		<g>
			<circle style="fill:#FFFFFF;" cx="415.614" cy="230.579" r="4.103"/>
			<path style="fill:#263238;" d="M415.614,235.182c-2.538,0-4.603-2.064-4.603-4.602s2.065-4.603,4.603-4.603
				c2.538,0,4.603,2.064,4.603,4.603S418.152,235.182,415.614,235.182z M415.614,226.977c-1.986,0-3.603,1.616-3.603,3.603
				s1.616,3.602,3.603,3.602c1.986,0,3.603-1.616,3.603-3.602S417.601,226.977,415.614,226.977z"/>
		</g>
	</g>
</g>
</svg>
